# This file uses centimeters as units for non-parametric coordinates.

mtllib Liquido.mtl
g default
v 2.269112 0.150054 -0.126339
v 2.269112 7.571741 -0.126339
v 6.058626 0.386158 -1.357626
v 5.992038 0.219207 -1.335990
v 5.831279 0.150054 -1.283757
v 5.492665 0.386158 -2.468387
v 5.436022 0.219207 -2.427233
v 5.299272 0.150054 -2.327879
v 4.611160 0.386158 -3.349892
v 4.570007 0.219207 -3.293249
v 4.470653 0.150054 -3.156499
v 3.500400 0.386158 -3.915853
v 3.478764 0.219207 -3.849264
v 3.426530 0.150054 -3.688506
v 2.269112 0.386158 -4.110869
v 2.269112 0.219207 -4.040854
v 2.269112 0.150054 -3.871822
v 1.037824 0.386158 -3.915853
v 1.059460 0.219207 -3.849264
v 1.111693 0.150054 -3.688505
v -0.072936 0.386158 -3.349891
v -0.031782 0.219207 -3.293248
v 0.067572 0.150054 -3.156499
v -0.954441 0.386158 -2.468386
v -0.897797 0.219207 -2.427233
v -0.761047 0.150054 -2.327879
v -1.520401 0.386158 -1.357626
v -1.453813 0.219207 -1.335990
v -1.293054 0.150054 -1.283756
v -1.715418 0.386158 -0.126339
v -1.645403 0.219207 -0.126339
v -1.476371 0.150054 -0.126339
v -1.520401 0.386158 1.104949
v -1.453813 0.219207 1.083313
v -1.293054 0.150054 1.031079
v -0.954440 0.386158 2.215708
v -0.897797 0.219207 2.174555
v -0.761047 0.150054 2.075200
v -0.072936 0.386158 3.097213
v -0.031782 0.219207 3.040570
v 0.067572 0.150054 2.903820
v 1.037824 0.386158 3.663173
v 1.059460 0.219207 3.596585
v 1.111694 0.150054 3.435826
v 2.269112 0.386158 3.858190
v 2.269112 0.219207 3.788175
v 2.269112 0.150054 3.619143
v 3.500399 0.386158 3.663173
v 3.478763 0.219207 3.596585
v 3.426529 0.150054 3.435826
v 4.611159 0.386158 3.097212
v 4.570005 0.219207 3.040569
v 4.470651 0.150054 2.903820
v 5.492663 0.386158 2.215708
v 5.436020 0.219207 2.174555
v 5.299270 0.150054 2.075200
v 6.058623 0.386158 1.104948
v 5.992035 0.219207 1.083313
v 5.831276 0.150054 1.031079
v 6.253640 0.386158 -0.126339
v 6.183624 0.219207 -0.126339
v 6.014593 0.150054 -0.126339
v 6.058626 7.335636 -1.357626
v 5.992038 7.502588 -1.335990
v 5.831279 7.571741 -1.283757
v 5.492665 7.335636 -2.468387
v 5.436022 7.502588 -2.427233
v 5.299272 7.571741 -2.327879
v 4.611160 7.335636 -3.349892
v 4.570007 7.502588 -3.293249
v 4.470653 7.571741 -3.156499
v 3.500400 7.335636 -3.915853
v 3.478764 7.502588 -3.849264
v 3.426530 7.571741 -3.688506
v 2.269112 7.335636 -4.110869
v 2.269112 7.502588 -4.040854
v 2.269112 7.571741 -3.871822
v 1.037824 7.335636 -3.915853
v 1.059460 7.502588 -3.849264
v 1.111693 7.571741 -3.688505
v -0.072936 7.335636 -3.349891
v -0.031782 7.502588 -3.293248
v 0.067572 7.571741 -3.156499
v -0.954441 7.335636 -2.468386
v -0.897797 7.502588 -2.427233
v -0.761047 7.571741 -2.327879
v -1.520401 7.335636 -1.357626
v -1.453813 7.502588 -1.335990
v -1.293054 7.571741 -1.283756
v -1.715418 7.335636 -0.126339
v -1.645403 7.502588 -0.126339
v -1.476371 7.571741 -0.126339
v -1.520401 7.335636 1.104949
v -1.453813 7.502588 1.083313
v -1.293054 7.571741 1.031079
v -0.954440 7.335636 2.215708
v -0.897797 7.502588 2.174555
v -0.761047 7.571741 2.075200
v -0.072936 7.335636 3.097213
v -0.031782 7.502588 3.040570
v 0.067572 7.571741 2.903820
v 1.037824 7.335636 3.663173
v 1.059460 7.502588 3.596585
v 1.111694 7.571741 3.435826
v 2.269112 7.335636 3.858190
v 2.269112 7.502588 3.788175
v 2.269112 7.571741 3.619143
v 3.500399 7.335636 3.663173
v 3.478763 7.502588 3.596585
v 3.426529 7.571741 3.435826
v 4.611159 7.335636 3.097212
v 4.570005 7.502588 3.040569
v 4.470651 7.571741 2.903820
v 5.492663 7.335636 2.215708
v 5.436020 7.502588 2.174555
v 5.299270 7.571741 2.075200
v 6.058623 7.335636 1.104948
v 5.992035 7.502588 1.083313
v 5.831276 7.571741 1.031079
v 6.253640 7.335636 -0.126339
v 6.183624 7.502588 -0.126339
v 6.014593 7.571741 -0.126339
vt 0.892453 0.035230
vt 0.940152 0.035230
vt 0.940152 0.333661
vt 0.892453 0.333661
vt 0.891524 0.028061
vt 0.938385 0.028061
vt 0.978007 0.035230
vt 0.978007 0.333661
vt 0.891524 0.340831
vt 0.938385 0.340831
vt 0.839578 0.035230
vt 0.839578 0.333661
vt 0.839578 0.028061
vt 0.975574 0.028061
vt 0.975574 0.340831
vt 0.839578 0.340831
vt 0.786703 0.035230
vt 0.786703 0.333662
vt 0.787632 0.028061
vt 0.787632 0.340831
vt 0.739003 0.035230
vt 0.739004 0.333662
vt 0.740771 0.028061
vt 0.740771 0.340831
vt 0.701149 0.035230
vt 0.701149 0.333662
vt 0.703581 0.028061
vt 0.703582 0.340831
vt 0.260997 0.035230
vt 0.308696 0.035230
vt 0.308696 0.333662
vt 0.260997 0.333662
vt 0.262764 0.028061
vt 0.309625 0.028061
vt 0.361571 0.035230
vt 0.361571 0.333662
vt 0.262764 0.340831
vt 0.309625 0.340831
vt 0.223142 0.035230
vt 0.223142 0.333662
vt 0.225575 0.028061
vt 0.361571 0.028061
vt 0.414446 0.035230
vt 0.414446 0.333662
vt 0.361571 0.340831
vt 0.225575 0.340831
vt 0.413517 0.028061
vt 0.462146 0.035230
vt 0.462146 0.333662
vt 0.413517 0.340831
vt 0.460378 0.028061
vt 0.500000 0.035230
vt 0.500000 0.333662
vt 0.460378 0.340831
vt 0.497568 0.028061
vt 0.497568 0.340831
vt 0.435976 0.645270
vt 0.464811 0.701862
vt 0.271739 0.764595
vt 0.473524 0.699031
vt 0.443388 0.639885
vt 0.474747 0.764595
vt 0.391064 0.600358
vt 0.483908 0.764595
vt 0.396449 0.592946
vt 0.464811 0.827328
vt 0.334472 0.571523
vt 0.473524 0.830159
vt 0.337303 0.562810
vt 0.435976 0.883920
vt 0.271739 0.561587
vt 0.443388 0.889305
vt 0.271739 0.552426
vt 0.391064 0.928832
vt 0.209006 0.571523
vt 0.396449 0.936244
vt 0.206175 0.562810
vt 0.334472 0.957667
vt 0.152414 0.600358
vt 0.337303 0.966380
vt 0.147029 0.592946
vt 0.271739 0.967603
vt 0.107502 0.645270
vt 0.271739 0.976764
vt 0.100090 0.639885
vt 0.209006 0.957667
vt 0.078667 0.701862
vt 0.206175 0.966380
vt 0.069954 0.699031
vt 0.152414 0.928832
vt 0.068731 0.764595
vt 0.147029 0.936244
vt 0.059570 0.764595
vt 0.107502 0.883920
vt 0.078667 0.827328
vt 0.100090 0.889305
vt 0.069954 0.830159
vt 0.933293 0.684343
vt 0.904458 0.740935
vt 0.740222 0.621611
vt 0.942007 0.687174
vt 0.911870 0.746321
vt 0.859547 0.785847
vt 0.943229 0.621611
vt 0.952391 0.621611
vt 0.864932 0.793259
vt 0.802954 0.814682
vt 0.933294 0.558878
vt 0.942007 0.556047
vt 0.805786 0.823396
vt 0.740222 0.824618
vt 0.904458 0.502286
vt 0.911870 0.496901
vt 0.740222 0.833780
vt 0.677489 0.814682
vt 0.859547 0.457374
vt 0.864932 0.449962
vt 0.674658 0.823396
vt 0.620897 0.785847
vt 0.802954 0.428539
vt 0.805786 0.419826
vt 0.615512 0.793259
vt 0.575985 0.740935
vt 0.740222 0.418603
vt 0.740222 0.409441
vt 0.568573 0.746320
vt 0.547150 0.684343
vt 0.677489 0.428539
vt 0.674658 0.419826
vt 0.538437 0.687174
vt 0.537214 0.621611
vt 0.620897 0.457374
vt 0.615512 0.449962
vt 0.528052 0.621611
vt 0.547150 0.558878
vt 0.575985 0.502286
vt 0.568573 0.496901
vt 0.538437 0.556047
vt 0.021993 0.035230
vt 0.069693 0.035230
vt 0.069693 0.333662
vt 0.021993 0.333662
vt 0.023760 0.028061
vt 0.070622 0.028061
vt 0.122568 0.035230
vt 0.122568 0.333662
vt 0.023761 0.340831
vt 0.070622 0.340831
vt 0.122568 0.028061
vt 0.175443 0.035230
vt 0.175443 0.333662
vt 0.122568 0.340831
vt 0.174514 0.028061
vt 0.174514 0.340831
vt 0.221375 0.028061
vt 0.221375 0.340831
vt 0.547699 0.035230
vt 0.547700 0.333662
vt 0.501767 0.028061
vt 0.548629 0.028061
vt 0.600574 0.035230
vt 0.600575 0.333662
vt 0.501767 0.340831
vt 0.548629 0.340831
vt 0.600574 0.028061
vt 0.653450 0.035230
vt 0.653450 0.333662
vt 0.600575 0.340831
vt 0.652521 0.028061
vt 0.652521 0.340831
vt 0.699382 0.028061
vt 0.699382 0.340831
vn 0.951015 -0.009386 -0.309002
vn 0.808981 -0.009386 -0.587759
vn 0.808981 0.009386 -0.587759
vn 0.951015 0.009386 -0.309002
vn 0.587759 -0.009386 -0.808981
vn 0.587759 0.009386 -0.808981
vn 0.309003 -0.009386 -0.951015
vn 0.309003 0.009386 -0.951015
vn 0.000000 -0.009386 -0.999956
vn 0.000000 0.009386 -0.999956
vn -0.309003 -0.009386 -0.951015
vn -0.309003 0.009386 -0.951015
vn -0.587760 -0.009386 -0.808981
vn -0.587760 0.009386 -0.808981
vn -0.808981 -0.009386 -0.587759
vn -0.808981 0.009386 -0.587759
vn -0.951015 -0.009386 -0.309003
vn -0.951015 0.009386 -0.309003
vn -0.999956 -0.009386 -0.000000
vn -0.999956 0.009386 -0.000000
vn -0.951015 -0.009386 0.309003
vn -0.951015 0.009386 0.309003
vn -0.808981 -0.009386 0.587760
vn -0.808981 0.009386 0.587760
vn -0.587759 -0.009386 0.808981
vn -0.587759 0.009386 0.808981
vn -0.309004 -0.009386 0.951015
vn -0.309004 0.009386 0.951015
vn 0.000000 -0.009386 0.999956
vn 0.000000 0.009386 0.999956
vn 0.309004 -0.009386 0.951015
vn 0.309004 0.009386 0.951015
vn 0.587759 -0.009386 0.808981
vn 0.587759 0.009386 0.808981
vn 0.808981 -0.009386 0.587759
vn 0.808981 0.009386 0.587759
vn 0.951015 -0.009386 0.309003
vn 0.951015 0.009386 0.309003
vn 0.999956 -0.009386 0.000001
vn 0.999956 0.009386 0.000001
vn 0.033318 -0.999152 -0.024207
vn 0.039167 -0.999152 -0.012726
vn 0.000000 -1.000000 0.000000
vn 0.024207 -0.999152 -0.033318
vn 0.012726 -0.999152 -0.039167
vn -0.000000 -0.999152 -0.041183
vn -0.012726 -0.999152 -0.039167
vn -0.024207 -0.999152 -0.033318
vn -0.033318 -0.999152 -0.024207
vn -0.039167 -0.999152 -0.012726
vn -0.041183 -0.999152 0.000000
vn -0.039167 -0.999152 0.012726
vn -0.033318 -0.999152 0.024207
vn -0.024207 -0.999152 0.033318
vn -0.012726 -0.999152 0.039167
vn 0.000000 -0.999152 0.041183
vn 0.012726 -0.999152 0.039167
vn 0.024207 -0.999152 0.033318
vn 0.033318 -0.999152 0.024207
vn 0.039167 -0.999152 0.012726
vn 0.041183 -0.999152 0.000000
vn 0.039167 0.999152 -0.012726
vn 0.033318 0.999152 -0.024207
vn 0.000000 1.000000 -0.000000
vn 0.024207 0.999152 -0.033318
vn 0.012726 0.999152 -0.039167
vn -0.000000 0.999152 -0.041183
vn -0.012726 0.999152 -0.039167
vn -0.024207 0.999152 -0.033318
vn -0.033318 0.999152 -0.024207
vn -0.039167 0.999152 -0.012726
vn -0.041183 0.999152 0.000000
vn -0.039167 0.999152 0.012726
vn -0.033318 0.999152 0.024207
vn -0.024207 0.999152 0.033318
vn -0.012726 0.999152 0.039167
vn -0.000000 0.999152 0.041183
vn 0.012726 0.999152 0.039167
vn 0.024207 0.999152 0.033317
vn 0.033318 0.999152 0.024206
vn 0.039167 0.999152 0.012726
vn 0.041183 0.999152 0.000000
vn 0.877053 -0.386744 -0.284970
vn 0.746066 -0.386742 -0.542048
vn 0.360120 -0.925539 -0.117009
vn 0.306336 -0.925539 -0.222566
vn 0.542048 -0.386743 -0.746066
vn 0.222566 -0.925539 -0.306337
vn 0.284971 -0.386744 -0.877052
vn 0.117010 -0.925539 -0.360120
vn -0.000000 -0.386744 -0.922187
vn -0.000000 -0.925539 -0.378652
vn -0.284971 -0.386744 -0.877052
vn -0.117010 -0.925539 -0.360119
vn -0.542048 -0.386743 -0.746065
vn -0.222567 -0.925539 -0.306336
vn -0.746065 -0.386744 -0.542048
vn -0.306337 -0.925539 -0.222567
vn -0.877052 -0.386744 -0.284971
vn -0.360120 -0.925539 -0.117010
vn -0.922187 -0.386744 -0.000000
vn -0.378652 -0.925539 0.000000
vn -0.877053 -0.386742 0.284972
vn -0.360119 -0.925539 0.117010
vn -0.746066 -0.386742 0.542048
vn -0.306336 -0.925539 0.222566
vn -0.542049 -0.386742 0.746065
vn -0.222566 -0.925539 0.306336
vn -0.284971 -0.386743 0.877052
vn -0.117010 -0.925539 0.360119
vn 0.000000 -0.386744 0.922187
vn -0.000000 -0.925539 0.378652
vn 0.284971 -0.386743 0.877052
vn 0.117010 -0.925539 0.360120
vn 0.542048 -0.386742 0.746066
vn 0.222566 -0.925539 0.306336
vn 0.746066 -0.386741 0.542049
vn 0.306336 -0.925539 0.222565
vn 0.877053 -0.386743 0.284972
vn 0.360119 -0.925539 0.117010
vn 0.922187 -0.386745 0.000001
vn 0.378653 -0.925539 0.000000
vn 0.877053 0.386743 -0.284970
vn 0.922187 0.386743 0.000001
vn 0.360119 0.925539 -0.117009
vn 0.378652 0.925539 0.000000
vn 0.306335 0.925540 -0.222565
vn 0.746066 0.386741 -0.542049
vn 0.222566 0.925539 -0.306336
vn 0.542048 0.386742 -0.746066
vn 0.117010 0.925539 -0.360120
vn 0.284971 0.386743 -0.877052
vn -0.000000 0.925539 -0.378652
vn -0.000000 0.386744 -0.922187
vn -0.117010 0.925539 -0.360119
vn -0.284972 0.386743 -0.877052
vn -0.222566 0.925539 -0.306336
vn -0.542049 0.386742 -0.746066
vn -0.306336 0.925539 -0.222566
vn -0.746066 0.386742 -0.542048
vn -0.360119 0.925539 -0.117010
vn -0.877052 0.386743 -0.284972
vn -0.378651 0.925539 0.000000
vn -0.922188 0.386742 -0.000000
vn -0.360118 0.925540 0.117009
vn -0.877053 0.386741 0.284972
vn -0.306335 0.925540 0.222565
vn -0.746066 0.386740 0.542049
vn -0.222565 0.925539 0.306336
vn -0.542049 0.386741 0.746066
vn -0.117010 0.925539 0.360119
vn -0.284972 0.386742 0.877053
vn -0.000000 0.925539 0.378651
vn -0.000000 0.386743 0.922188
vn 0.117010 0.925539 0.360119
vn 0.284972 0.386742 0.877053
vn 0.222566 0.925540 0.306335
vn 0.542049 0.386741 0.746066
vn 0.306335 0.925540 0.222564
vn 0.746067 0.386740 0.542049
vn 0.360118 0.925540 0.117010
vn 0.877053 0.386741 0.284971
s 1
g modelPanel4ViewSelectedSet Liquido
usemtl initialShadingGroup
f 3/1/1 6/2/2 66/3/3 63/4/4
f 6/2/2 9/7/5 69/8/6 66/3/3
f 9/139/5 12/140/7 72/141/8 69/142/6
f 12/140/7 15/145/9 75/146/10 72/141/8
f 15/145/9 18/150/11 78/151/12 75/146/10
f 18/150/11 21/39/13 81/40/14 78/151/12
f 21/39/13 24/29/15 84/32/16 81/40/14
f 24/29/15 27/30/17 87/31/18 84/32/16
f 27/30/17 30/35/19 90/36/20 87/31/18
f 30/35/19 33/43/21 93/44/22 90/36/20
f 33/43/21 36/48/23 96/49/24 93/44/22
f 36/48/23 39/52/25 99/53/26 96/49/24
f 39/52/25 42/157/27 102/158/28 99/53/26
f 42/157/27 45/161/29 105/162/30 102/158/28
f 45/161/29 48/166/31 108/167/32 105/162/30
f 48/166/31 51/25/33 111/26/34 108/167/32
f 51/25/33 54/21/35 114/22/36 111/26/34
f 54/21/35 57/17/37 117/18/38 114/22/36
f 57/17/37 60/11/39 120/12/40 117/18/38
f 60/11/39 3/1/1 63/4/4 120/12/40
s 2
f 8/57/41 5/58/42 1/59/43
f 11/63/44 8/57/41 1/59/43
f 14/67/45 11/63/44 1/59/43
f 17/71/46 14/67/45 1/59/43
f 20/75/47 17/71/46 1/59/43
f 23/79/48 20/75/47 1/59/43
f 26/83/49 23/79/48 1/59/43
f 29/87/50 26/83/49 1/59/43
f 32/91/51 29/87/50 1/59/43
f 35/95/52 32/91/51 1/59/43
f 38/94/53 35/95/52 1/59/43
f 41/90/54 38/94/53 1/59/43
f 44/86/55 41/90/54 1/59/43
f 47/82/56 44/86/55 1/59/43
f 50/78/57 47/82/56 1/59/43
f 53/74/58 50/78/57 1/59/43
f 56/70/59 53/74/58 1/59/43
f 59/66/60 56/70/59 1/59/43
f 62/62/61 59/66/60 1/59/43
f 5/58/42 62/62/61 1/59/43
s 3
f 65/98/62 68/99/63 2/100/64
f 68/99/63 71/103/65 2/100/64
f 71/103/65 74/107/66 2/100/64
f 74/107/66 77/111/67 2/100/64
f 77/111/67 80/115/68 2/100/64
f 80/115/68 83/119/69 2/100/64
f 83/119/69 86/123/70 2/100/64
f 86/123/70 89/127/71 2/100/64
f 89/127/71 92/131/72 2/100/64
f 92/131/72 95/135/73 2/100/64
f 95/135/73 98/136/74 2/100/64
f 98/136/74 101/132/75 2/100/64
f 101/132/75 104/128/76 2/100/64
f 104/128/76 107/124/77 2/100/64
f 107/124/77 110/120/78 2/100/64
f 110/120/78 113/116/79 2/100/64
f 113/116/79 116/112/80 2/100/64
f 116/112/80 119/108/81 2/100/64
f 119/108/81 122/104/82 2/100/64
f 122/104/82 65/98/62 2/100/64
s 1
f 3/1/1 4/5/83 7/6/84 6/2/2
s 2
f 4/60/85 5/58/42 8/57/41 7/61/86
s 1
f 6/2/2 7/6/84 10/14/87 9/7/5
s 2
f 7/61/86 8/57/41 11/63/44 10/65/88
s 1
f 9/139/5 10/143/87 13/144/89 12/140/7
s 2
f 10/65/88 11/63/44 14/67/45 13/69/90
s 1
f 12/140/7 13/144/89 16/149/91 15/145/9
s 2
f 13/69/90 14/67/45 17/71/46 16/73/92
s 1
f 15/145/9 16/149/91 19/153/93 18/150/11
s 2
f 16/73/92 17/71/46 20/75/47 19/77/94
s 1
f 18/150/11 19/153/93 22/155/95 21/39/13
s 2
f 19/77/94 20/75/47 23/79/48 22/81/96
s 1
f 21/39/13 22/41/95 25/33/97 24/29/15
s 2
f 22/81/96 23/79/48 26/83/49 25/85/98
s 1
f 24/29/15 25/33/97 28/34/99 27/30/17
s 2
f 25/85/98 26/83/49 29/87/50 28/89/100
s 1
f 27/30/17 28/34/99 31/42/101 30/35/19
s 2
f 28/89/100 29/87/50 32/91/51 31/93/102
s 1
f 30/35/19 31/42/101 34/47/103 33/43/21
s 2
f 31/93/102 32/91/51 35/95/52 34/97/104
s 1
f 33/43/21 34/47/103 37/51/105 36/48/23
s 2
f 34/97/104 35/95/52 38/94/53 37/96/106
s 1
f 36/48/23 37/51/105 40/55/107 39/52/25
s 2
f 37/96/106 38/94/53 41/90/54 40/92/108
s 1
f 39/52/25 40/159/107 43/160/109 42/157/27
s 2
f 40/92/108 41/90/54 44/86/55 43/88/110
s 1
f 42/157/27 43/160/109 46/165/111 45/161/29
s 2
f 43/88/110 44/86/55 47/82/56 46/84/112
s 1
f 45/161/29 46/165/111 49/169/113 48/166/31
s 2
f 46/84/112 47/82/56 50/78/57 49/80/114
s 1
f 48/166/31 49/169/113 52/171/115 51/25/33
s 2
f 49/80/114 50/78/57 53/74/58 52/76/116
s 1
f 51/25/33 52/27/115 55/23/117 54/21/35
s 2
f 52/76/116 53/74/58 56/70/59 55/72/118
s 1
f 54/21/35 55/23/117 58/19/119 57/17/37
s 2
f 55/72/118 56/70/59 59/66/60 58/68/120
s 1
f 57/17/37 58/19/119 61/13/121 60/11/39
s 2
f 58/68/120 59/66/60 62/62/61 61/64/122
f 5/58/42 4/60/85 61/64/122 62/62/61
s 1
f 4/5/83 3/1/1 60/11/39 61/13/121
f 63/4/4 64/9/123 121/16/124 120/12/40
s 3
f 64/101/125 65/98/62 122/104/82 121/105/126
f 65/98/62 64/101/125 67/102/127 68/99/63
s 1
f 64/9/123 63/4/4 66/3/3 67/10/128
s 3
f 68/99/63 67/102/127 70/106/129 71/103/65
s 1
f 67/10/128 66/3/3 69/8/6 70/15/130
s 3
f 71/103/65 70/106/129 73/110/131 74/107/66
s 1
f 70/147/130 69/142/6 72/141/8 73/148/132
s 3
f 74/107/66 73/110/131 76/114/133 77/111/67
s 1
f 73/148/132 72/141/8 75/146/10 76/152/134
s 3
f 77/111/67 76/114/133 79/118/135 80/115/68
s 1
f 76/152/134 75/146/10 78/151/12 79/154/136
s 3
f 80/115/68 79/118/135 82/122/137 83/119/69
s 1
f 79/154/136 78/151/12 81/40/14 82/156/138
s 3
f 83/119/69 82/122/137 85/126/139 86/123/70
s 1
f 82/46/138 81/40/14 84/32/16 85/37/140
s 3
f 86/123/70 85/126/139 88/130/141 89/127/71
s 1
f 85/37/140 84/32/16 87/31/18 88/38/142
s 3
f 89/127/71 88/130/141 91/134/143 92/131/72
s 1
f 88/38/142 87/31/18 90/36/20 91/45/144
s 3
f 92/131/72 91/134/143 94/138/145 95/135/73
s 1
f 91/45/144 90/36/20 93/44/22 94/50/146
s 3
f 95/135/73 94/138/145 97/137/147 98/136/74
s 1
f 94/50/146 93/44/22 96/49/24 97/54/148
s 3
f 98/136/74 97/137/147 100/133/149 101/132/75
s 1
f 97/54/148 96/49/24 99/53/26 100/56/150
s 3
f 101/132/75 100/133/149 103/129/151 104/128/76
s 1
f 100/163/150 99/53/26 102/158/28 103/164/152
s 3
f 104/128/76 103/129/151 106/125/153 107/124/77
s 1
f 103/164/152 102/158/28 105/162/30 106/168/154
s 3
f 107/124/77 106/125/153 109/121/155 110/120/78
s 1
f 106/168/154 105/162/30 108/167/32 109/170/156
s 3
f 110/120/78 109/121/155 112/117/157 113/116/79
s 1
f 109/170/156 108/167/32 111/26/34 112/172/158
s 3
f 113/116/79 112/117/157 115/113/159 116/112/80
s 1
f 112/28/158 111/26/34 114/22/36 115/24/160
s 3
f 116/112/80 115/113/159 118/109/161 119/108/81
s 1
f 115/24/160 114/22/36 117/18/38 118/20/162
s 3
f 119/108/81 118/109/161 121/105/126 122/104/82
s 1
f 118/20/162 117/18/38 120/12/40 121/16/124
